<svg xmlns="http://www.w3.org/2000/svg" xmlns:xlink="http://www.w3.org/1999/xlink" width="729.451" height="141.901" viewBox="288 359.897 729.451 141.901"><path d="M913.355 501.644c12.7 0 23.14-2.635 28.545-4.55v-21.56c0-5.03.377-5.988 3.396-6.467l4.527-.84v-1.316h-31.69v1.317l4.778.84c4.65.838 5.028 1.438 5.028 7.424v19.165c-3.018 1.797-8.05 3.354-15.092 3.354-19.363 0-26.658-14.253-26.658-42.16 0-27.665 10.94-37.965 27.79-37.965 8.806 0 12.827 2.156 17.106 7.785 3.52 4.672 5.156 8.623 7.797 14.492h1.384l-1.258-22.037c-6.162-1.917-14.084-2.875-23.768-2.875-21.252 0-44.016 9.7-44.016 43.476.004 28.145 15.22 41.918 42.133 41.918m-58.213-.72h4.904v-71.858c0-6.707.754-8.145 4.904-9.223l4.527-1.078v-1.317H845.96v1.317l5.407 1.078c4.652 1.078 5.156 2.397 5.156 9.46v48.747h-.38l-41.5-60.603H790.5v1.317l4.4.84c4.024.837 5.03 1.915 5.03 7.425v61.68c0 7.19-.88 8.265-4.904 9.343l-4.78 1.078v1.317h23.392v-1.316l-4.902-1.077c-4.78-1.2-5.28-2.275-5.28-9.463v-62.398h.376l51.31 74.733zm-107.96.72c22.136 0 30.31-11.496 30.31-26.23v-46.35c0-6.708.754-8.384 4.777-9.223l4.903-1.077v-1.317H762.15v1.317l5.783 1.078c4.902.96 5.154 2.756 5.154 9.463v44.914c0 14.61-6.162 22.275-21.38 22.275-15.466 0-22.76-6.467-22.76-21.56v-47.907c0-6.107.503-6.467 5.157-7.425l4.525-.84v-1.316H704.8v1.317l4.78.84c4.525.838 5.03 1.317 5.03 7.425v47.19c0 20.124 12.075 27.43 32.573 27.43m-69.14-81.562c10.94 0 12.575 2.036 15.34 7.545 1.89 3.832 4.15 8.982 6.29 14.49h1.51l-1.26-24.67h-66.648l-1.385 24.67h1.512c2.264-5.508 4.523-10.658 6.54-14.49 2.64-5.39 4.397-7.545 15.34-7.545h4.15v70.782c0 6.11-.503 6.588-5.28 7.426l-4.78.84v1.317h34.458v-1.316l-4.654-.84c-5.03-.956-5.406-1.437-5.406-7.425v-70.782h4.272zm-84.292 80.364h33.955v-1.316l-4.654-.84c-4.65-.837-5.153-1.315-5.153-7.425V427.03c0-6.11.504-6.59 5.154-7.427l4.655-.84v-1.316H593.75v1.317l4.78.84c4.526.837 5.03 1.316 5.03 7.425v63.835c0 6.11-.504 6.588-5.03 7.426l-4.78.84v1.317zm-21.325-57.49h-1.384c-.88 3.595-1.76 6.708-3.017 8.862-1.762 3.593-3.396 4.192-13.96 4.192h-7.294v-34.734c3.646-.718 7.797-1.077 14.085-1.077 11.317 0 14.336.72 17.856 5.99 1.762 2.754 3.9 7.186 6.163 12.215h1.384l-1.384-20.958h-62.25v1.317l4.654.84c4.526.957 5.03 1.316 5.03 7.425v63.835c0 6.11-.63 6.47-5.03 7.426l-4.653.84v1.317h64.764l1.762-25.15h-1.51c-2.39 6.107-4.778 12.215-7.67 16.287-3.773 4.79-5.534 6.107-17.732 6.107-14.84 0-15.47-.478-15.47-9.58v-29.343h7.296c10.438 0 12.323.48 13.96 4.072 1.13 2.274 2.137 5.388 3.017 8.862h1.385v-28.744zm-119.958 57.49h61.872l2.263-24.912h-1.384c-2.642 5.87-5.03 11.14-7.798 15.092-4.653 6.586-5.784 7.305-28.923 7.305h-10.063v-.48l48.29-77.25v-2.754H458.88l-1.76 23.952h1.383c2.64-5.988 4.653-10.18 7.294-14.73 2.768-4.67 4.78-6.586 24.27-6.586h10.44v.48l-48.04 77.01v2.873z"/><path fill="none" stroke="#000" stroke-width=".307" stroke-miterlimit="5.592" d="M913.355 501.644c12.7 0 23.14-2.635 28.545-4.55v-21.56c0-5.03.377-5.988 3.396-6.467l4.527-.84v-1.316h-31.69v1.317l4.778.84c4.65.838 5.028 1.438 5.028 7.424v19.165c-3.018 1.797-8.05 3.354-15.092 3.354-19.363 0-26.658-14.253-26.658-42.16 0-27.665 10.94-37.965 27.79-37.965 8.806 0 12.827 2.156 17.106 7.785 3.52 4.672 5.156 8.623 7.797 14.492h1.384l-1.258-22.037c-6.162-1.917-14.084-2.875-23.768-2.875-21.252 0-44.016 9.7-44.016 43.476.004 28.145 15.22 41.918 42.133 41.918zm-58.213-.72h4.904v-71.858c0-6.707.754-8.145 4.904-9.223l4.527-1.078v-1.317H845.96v1.317l5.407 1.078c4.652 1.078 5.156 2.397 5.156 9.46v48.747h-.38l-41.5-60.603H790.5v1.317l4.4.84c4.024.837 5.03 1.915 5.03 7.425v61.68c0 7.19-.88 8.265-4.904 9.343l-4.78 1.078v1.317h23.392v-1.316l-4.902-1.077c-4.78-1.2-5.28-2.275-5.28-9.463v-62.398h.376l51.31 74.733zm-107.96.72c22.136 0 30.31-11.496 30.31-26.23v-46.35c0-6.708.754-8.384 4.777-9.223l4.903-1.077v-1.317H762.15v1.317l5.783 1.078c4.902.96 5.154 2.756 5.154 9.463v44.914c0 14.61-6.162 22.275-21.38 22.275-15.466 0-22.76-6.467-22.76-21.56v-47.907c0-6.107.503-6.467 5.157-7.425l4.525-.84v-1.316H704.8v1.317l4.78.84c4.525.838 5.03 1.317 5.03 7.425v47.19c0 20.124 12.075 27.43 32.573 27.43zm-69.14-81.56c10.94 0 12.576 2.035 15.342 7.544 1.89 3.832 4.15 8.982 6.29 14.49h1.51l-1.26-24.67h-66.65l-1.384 24.67h1.512c2.264-5.508 4.523-10.658 6.54-14.49 2.64-5.39 4.397-7.545 15.34-7.545h4.15v70.782c0 6.11-.503 6.588-5.28 7.426l-4.78.84v1.317h34.458v-1.316l-4.654-.84c-5.03-.956-5.406-1.437-5.406-7.425v-70.782h4.272zm-84.29 80.363h33.953v-1.316l-4.654-.84c-4.65-.837-5.153-1.315-5.153-7.425V427.03c0-6.11.504-6.59 5.154-7.427l4.655-.84v-1.316H593.75v1.317l4.78.84c4.526.837 5.03 1.316 5.03 7.425v63.835c0 6.11-.504 6.588-5.03 7.426l-4.78.84v1.317zm-21.327-57.49h-1.384c-.88 3.595-1.76 6.708-3.017 8.862-1.762 3.593-3.396 4.192-13.96 4.192h-7.294v-34.734c3.646-.718 7.797-1.077 14.085-1.077 11.317 0 14.336.72 17.856 5.99 1.762 2.754 3.9 7.186 6.163 12.215h1.384l-1.384-20.958h-62.25v1.317l4.654.84c4.526.957 5.03 1.316 5.03 7.425v63.835c0 6.11-.63 6.47-5.03 7.426l-4.653.84v1.317h64.764l1.762-25.15h-1.51c-2.39 6.107-4.778 12.215-7.67 16.287-3.773 4.79-5.534 6.107-17.732 6.107-14.84 0-15.47-.478-15.47-9.58v-29.343h7.296c10.438 0 12.323.48 13.96 4.072 1.13 2.274 2.137 5.388 3.017 8.862h1.385v-28.744zm-119.958 57.49h61.872l2.263-24.912h-1.384c-2.642 5.87-5.03 11.14-7.798 15.092-4.653 6.586-5.784 7.305-28.923 7.305h-10.063v-.48l48.29-77.25v-2.754H458.88l-1.76 23.952h1.383c2.64-5.988 4.653-10.18 7.294-14.73 2.768-4.67 4.78-6.586 24.27-6.586h10.44v.48l-48.04 77.01v2.873z"/><path fill="#2A4D86" d="M414.31 500.84l.294-2.108h-3.51l4.068-4.24.295-2.05H408.7l-.31 2.112h3.312l-4.067 4.238-.278 2.05h6.952zm-8.238 0l1.147-8.397h-3.035l-1.147 8.398h3.034zm1.247-9.247l.343-2.592h-3.034l-.345 2.593h3.034zm-7.592 4.032h-2.197c.214-1.008.706-1.44 1.28-1.44.672 0 1.033.432.918 1.44m2.755.93c.31-2.18-.82-4.29-3.43-4.29-3.082 0-4.59 2.336-4.59 5.088 0 2.13 1.328 3.664 3.788 3.664 1.985 0 3.084-.78 3.953-1.73l-1.36-1.31c-.542.48-1.05.895-2.035.895-.95 0-1.54-.48-1.508-1.584h5.067c.034-.238.067-.415.116-.734m-7.596-4.113h-2.558l-1.56 4.13h-.032l-.508-4.13H388l-1.722 4.13h-.033l-.345-4.13h-3l1.426 8.4h2.36l1.657-4.206h.033l.442 4.207h2.378l3.69-8.4zm-13.845 8.4l.87-6.397c.196-1.455-.345-2.178-1.608-2.178-1.032 0-1.935.447-2.95 1.2l.59-4.464h-3.034l-1.59 11.84h3.032l.756-5.614c.377-.318.82-.56 1.196-.56.345 0 .508.206.46.575l-.755 5.6h3.032zm-8.452-2.43l-2.197-1.152c-.46 1.2-.87 1.553-1.427 1.553-.54 0-.9-.573-.9-1.438 0-1.55.44-2.928 1.376-2.928.655 0 .95.56 1.033 1.31l2.51-.862c-.23-1.52-1.247-2.625-3.493-2.625-2.772 0-4.362 2.16-4.362 5.04 0 1.856.984 3.712 3.56 3.712 2.063-.003 3.326-1.17 3.9-2.61m-8.144-.577c0-1.328-.655-1.95-3.246-2.625-.574-.143-.738-.303-.722-.543.016-.256.344-.432.853-.416.526 0 1.23.19 1.985.688l1.427-1.408c-1.115-.863-2.345-1.266-3.526-1.266-2 0-3.657 1.06-3.657 2.85 0 1.537.9 2.21 3.197 2.928.69.21.77.32.77.576s-.295.45-.82.465c-.655.016-1.59-.27-2.312-1.04l-1.622 1.23c.95 1.185 2.46 1.743 3.902 1.743 1.968 0 3.77-1.134 3.77-3.183m-8.604 3.024l.296-2.16c-.23.05-.426.08-.754.08-.574 0-.788-.336-.706-.928l.428-3.296h1.49l.313-2.113h-1.493l.36-2.75h-2.983l-.36 2.75h-.87l-.31 2.114h.868s-.426 3.008-.492 3.44c-.28 1.84.443 2.958 2.59 2.958.706 0 1.23-.03 1.625-.095m-5.524-3.024c0-1.328-.656-1.95-3.247-2.625-.575-.143-.74-.303-.723-.543.017-.256.345-.432.853-.416.524 0 1.23.19 1.984.688l1.427-1.408c-1.114-.863-2.345-1.266-3.524-1.266-2 0-3.657 1.06-3.657 2.85 0 1.537.9 2.21 3.196 2.928.688.21.77.32.77.576s-.294.45-.818.465c-.656.016-1.59-.27-2.312-1.04l-1.624 1.23c.952 1.185 2.46 1.743 3.903 1.743 1.967 0 3.77-1.134 3.77-3.183m-10.837-2.208h-2.196c.213-1.008.705-1.44 1.278-1.44.672 0 1.033.432.918 1.44m2.755.93c.312-2.18-.82-4.29-3.428-4.29-3.083 0-4.592 2.336-4.592 5.088 0 2.13 1.33 3.664 3.788 3.664 1.986 0 3.084-.78 3.954-1.73l-1.362-1.31c-.54.48-1.05.895-2.033.895-.95 0-1.542-.48-1.51-1.584h5.067c.034-.238.067-.415.116-.734m-7.545-4.113h-2.56l-1.557 4.13h-.032l-.51-4.13h-2.23l-1.72 4.13h-.033l-.345-4.13h-3l1.426 8.4h2.36l1.657-4.206h.032l.443 4.207h2.378l3.692-8.4zm-16.74 5.954c-.247.225-.56.385-.855.385-.508 0-.983-.355-.983-1.44 0-1.936.64-2.832 1.378-2.832.36 0 .705.16.935.385l-.476 3.5zm2.967 2.447c-.13-.415-.098-1.183.017-2.06l1.312-9.776h-3.034l-.558 4.225c-.443-.497-1.148-.962-2.164-.962-1.657 0-3.33 1.76-3.33 5.184 0 2.48 1.165 3.568 2.428 3.568.852 0 1.574-.447 2.13-.96 0 .288.05.544.133.784h3.065v-.003zm-8.238-5.567l.41-3.008h-.05c-.95 0-2.033.736-2.722 1.775h-.033l.214-1.6h-3.034l-1.147 8.398h3.033l.656-4.768c.77-.496 1.738-.8 2.623-.8h.05v.003zm-11.163 3.648c-.82-.048-1.1-.782-.87-2.32.264-1.79.82-2.304 1.56-2.237.787.062.95.734.738 2.318-.247 1.794-.772 2.273-1.428 2.24m-.263 2.097c2.79.033 4.674-1.967 4.658-5.23 0-2.176-1.197-3.488-3.575-3.52-3.017-.048-4.657 2.145-4.657 5.2 0 2.142 1.492 3.52 3.575 3.55m-5.308-.176l.87-6.335c.196-1.455-.427-2.24-1.674-2.24-1.033 0-1.95.467-2.886 1.2l.148-1.022h-3.034l-1.148 8.398h3.034l.754-5.614c.41-.318.87-.56 1.197-.56s.51.224.46.64l-.755 5.535h3.034z"/><g><defs><path id="a" d="M288 360.48h127.848v125.193H288z"/></defs><clipPath id="b"><use xlink:href="#a" overflow="visible"/></clipPath><path clip-path="url(#b)" fill="#2A4D86" d="M412.427 458.804l-2.69 13.154H351.83l.797-7.277-.198-.194v.195c-3.79 5.983-10.466 8.48-17.444 8.48-11.163 0-17.344-4.988-17.344-15.055 0-12.758 12.76-19.037 28.608-19.037 3.586 0 7.173.3 9.666.5.2-.697.2-1.396.2-2.098 0-3.686-3.688-6.676-9.566-6.676-6.48 0-10.868.996-16.847 4.086l1.795-13.057c5.28-1.794 10.963-2.99 19.035-2.99 12.36 0 22.527 4.886 22.527 17.644 0 5.205-1.86 11.834-3.728 20.006l26.15-23.297h-22.228l2.69-13.156h39.9v-59.55H288v125.193h127.846V434.79l-27.143 24.014h23.724z"/><g><defs><path id="c" d="M288 360.48h127.848v125.193H288z"/></defs><clipPath id="d"><use xlink:href="#c" overflow="visible"/></clipPath><path clip-path="url(#d)" fill="#2A4D86" d="M334.587 456.01c0 2.397 2.29 5.187 6.08 5.187 7.675 0 12.26-5.285 13.553-12.266-1.49-.294-3.687-.294-4.782-.294-8.57-.3-14.85 2.79-14.85 7.375"/></g><g><defs><path id="e" d="M288 360.48h127.848v125.193H288z"/></defs><clipPath id="f"><use xlink:href="#e" overflow="visible"/></clipPath><path clip-path="url(#f)" fill="#FFF" d="M340.667 461.195c-3.788 0-6.08-2.79-6.08-5.184 0-4.585 6.28-7.675 14.85-7.376 1.098 0 3.295 0 4.783.297-1.294 6.98-5.878 12.265-13.553 12.265m75.18-41.165h-39.9l-2.69 13.155h22.227l-26.148 23.297c1.867-8.17 3.727-14.8 3.727-20.006 0-12.758-10.166-17.643-22.526-17.643-8.072 0-13.755 1.196-19.036 2.99l-1.795 13.058c5.98-3.09 10.367-4.085 16.844-4.085 5.883 0 9.57 2.99 9.57 6.676 0 .702 0 1.4-.2 2.097-2.493-.2-6.08-.5-9.666-.5-15.85 0-28.608 6.28-28.608 19.037 0 10.068 6.183 15.055 17.344 15.055 6.978 0 13.655-2.495 17.443-8.478v-.2l.198.2-.796 7.28h57.905l2.69-13.157h-23.724l27.144-24.014v-14.76h-.002z"/></g></g><g><path d="M741.85 380.886c-1.856 0-3.097-.177-3.9-.295v-18.17c1.483-.296 3.034-.473 5.265-.473 5.018 0 7.93 2.36 7.93 9.38-.003 6.786-3.224 9.56-9.296 9.56m-15.798 20.59h16.605v-.648l-2.23-.414c-2.293-.472-2.48-.648-2.48-3.658v-14.632c1.61.06 3.347.118 4.585.118 3.47 6.726 7.807 14.1 11.584 19.234h10.408v-.65l-1.115-.235c-1.116-.235-1.735-.53-3.284-2.478-3.035-3.717-7.867-11.86-10.842-17.17v-.117c5.824-1.77 9.105-4.956 9.105-10.443 0-6.55-4.46-9.794-14.126-9.794H726.05v.65l2.294.413c2.168.472 2.48.59 2.48 3.658v31.447c0 3.068-.312 3.187-2.48 3.658l-2.293.413v.65h.002zm-10.617-28.32h-.682c-.434 1.77-.867 3.304-1.486 4.366-.865 1.77-1.672 2.064-6.877 2.064h-3.592v-17.11c1.795-.353 3.84-.53 6.94-.53 5.573 0 7.06.354 8.796 2.95.867 1.356 1.92 3.54 3.035 6.018h.68l-.68-10.325h-30.667v.65l2.293.412c2.23.472 2.48.648 2.48 3.658v31.446c0 3.01-.312 3.187-2.48 3.658l-2.293.413v.65h31.904l.867-12.392h-.744c-1.176 3.01-2.354 6.02-3.777 8.024-1.86 2.358-2.727 3.008-8.734 3.008-7.313 0-7.62-.236-7.62-4.72v-14.455h3.592c5.143 0 6.072.235 6.877 2.006.556 1.12 1.052 2.654 1.485 4.365h.682v-14.158h-.002zm-46.53 28.91c10.903 0 14.93-5.664 14.93-12.92v-22.834c0-3.305.372-4.13 2.356-4.543l2.417-.53v-.65H676.28v.65l2.85.53c2.415.472 2.54 1.356 2.54 4.66v22.125c0 7.198-3.035 10.975-10.53 10.975-7.622 0-11.214-3.187-11.214-10.62v-23.6c0-3.01.248-3.187 2.54-3.658l2.23-.413v-.65H648.03v.65l2.355.412c2.23.413 2.48.648 2.48 3.658v23.245c-.004 9.913 5.943 13.512 16.04 13.512M628.93 368.26h.187l5.822 16.992h-12.204l6.193-16.992zm-16.975 33.218h11.027v-.65l-1.672-.353c-1.92-.473-2.602-1.18-2.602-2.597 0-.943.246-2.242 1.053-4.483l2.417-6.727h13.258l2.725 8.024c.373 1.003.807 2.537.807 3.422 0 1.18-.434 1.947-2.48 2.42l-1.425.294v.65h16.418v-.65l-1.3-.295c-1.798-.413-2.542-1.475-4.214-6.018l-12.328-33.926h-3.346l-12.7 33.217c-2.044 5.428-2.415 6.136-4.583 6.726l-1.056.295v.65zm-17.22.59c6.256 0 11.4-1.3 14.063-2.243v-10.62c0-2.478.186-2.95 1.672-3.186l2.23-.414v-.65h-15.61v.65l2.354.413c2.29.412 2.48.707 2.48 3.656v9.44c-1.49.885-3.968 1.652-7.436 1.652-9.54 0-13.133-7.02-13.133-20.77 0-13.628 5.39-18.702 13.69-18.702 4.334 0 6.32 1.062 8.424 3.835 1.733 2.303 2.538 4.25 3.84 7.14h.683l-.62-10.855c-3.034-.944-6.938-1.416-11.708-1.416-10.47 0-21.682 4.778-21.682 21.416 0 13.866 7.496 20.65 20.752 20.65m-41.574-21.18c-1.857 0-3.096-.177-3.9-.295v-18.17c1.485-.296 3.034-.473 5.265-.473 5.018 0 7.93 2.36 7.93 9.38 0 6.786-3.222 9.56-9.294 9.56m-15.796 20.59h16.603v-.648l-2.23-.414c-2.292-.472-2.478-.648-2.478-3.658v-14.632c1.61.06 3.344.118 4.583.118 3.47 6.726 7.807 14.1 11.585 19.234h10.407v-.65l-1.115-.235c-1.114-.235-1.734-.53-3.282-2.478-3.036-3.717-7.868-11.86-10.843-17.17v-.117c5.824-1.77 9.107-4.956 9.107-10.443 0-6.55-4.46-9.794-14.124-9.794h-18.214v.65l2.292.413c2.17.472 2.478.59 2.478 3.658v31.447c0 3.068-.31 3.187-2.478 3.658l-2.292.413v.65zM512.89 368.26h.185l5.824 16.992h-12.205l6.194-16.992zm-16.976 33.218h11.027v-.65l-1.672-.353c-1.92-.473-2.602-1.18-2.602-2.597 0-.943.248-2.242 1.053-4.483l2.415-6.727h13.257l2.727 8.024c.37 1.003.804 2.537.804 3.422 0 1.18-.433 1.947-2.478 2.42l-1.425.294v.65h16.417v-.65l-1.3-.295c-1.797-.413-2.54-1.475-4.213-6.018l-12.328-33.926h-3.346l-12.7 33.217c-2.044 5.428-2.415 6.136-4.584 6.726l-1.053.295v.65zm-23.88-33.218h.185l5.822 16.992h-12.204l6.195-16.992zm-16.975 33.218h11.026v-.65l-1.673-.353c-1.92-.473-2.602-1.18-2.602-2.597 0-.943.248-2.242 1.055-4.483l2.416-6.727h13.258l2.726 8.024c.372 1.003.806 2.537.806 3.422 0 1.18-.434 1.947-2.48 2.42l-1.424.294v.65h16.417v-.65l-1.3-.295c-1.797-.413-2.54-1.475-4.213-6.018l-12.328-33.926h-3.347l-12.7 33.217c-2.043 5.428-2.415 6.136-4.583 6.726l-1.054.295v.65z"/><path fill="none" stroke="#000" stroke-width=".205" stroke-miterlimit="5.592" d="M741.85 380.886c-1.856 0-3.097-.177-3.9-.295v-18.17c1.483-.296 3.034-.473 5.265-.473 5.018 0 7.93 2.36 7.93 9.38-.003 6.786-3.224 9.56-9.296 9.56zm-15.798 20.592h16.605v-.65l-2.23-.412c-2.293-.472-2.48-.648-2.48-3.658v-14.632c1.61.06 3.347.118 4.585.118 3.47 6.726 7.807 14.1 11.584 19.234h10.408v-.65l-1.115-.235c-1.116-.235-1.735-.53-3.284-2.478-3.035-3.717-7.867-11.86-10.842-17.17v-.117c5.824-1.77 9.105-4.956 9.105-10.443 0-6.55-4.46-9.794-14.126-9.794H726.05v.65l2.294.413c2.168.472 2.48.59 2.48 3.658v31.447c0 3.068-.312 3.187-2.48 3.658l-2.293.413v.65h.002zm-10.617-28.32h-.682c-.434 1.77-.867 3.303-1.486 4.365-.865 1.77-1.672 2.064-6.877 2.064h-3.592v-17.11c1.795-.353 3.84-.53 6.94-.53 5.573 0 7.06.354 8.796 2.95.867 1.356 1.92 3.54 3.035 6.018h.68l-.68-10.325h-30.667v.65l2.293.412c2.23.472 2.48.648 2.48 3.658v31.446c0 3.01-.312 3.187-2.48 3.658l-2.293.413v.65h31.904l.867-12.392h-.744c-1.176 3.01-2.354 6.02-3.777 8.024-1.86 2.358-2.727 3.008-8.734 3.008-7.313 0-7.62-.236-7.62-4.72v-14.455h3.592c5.143 0 6.072.235 6.877 2.006.556 1.12 1.052 2.654 1.485 4.365h.682v-14.158h-.002zm-46.53 28.91c10.903 0 14.93-5.665 14.93-12.922v-22.833c0-3.305.372-4.13 2.356-4.543l2.417-.53v-.65H676.28v.65l2.85.53c2.415.472 2.54 1.356 2.54 4.66v22.125c0 7.198-3.035 10.975-10.53 10.975-7.622 0-11.214-3.187-11.214-10.62v-23.6c0-3.01.248-3.187 2.54-3.658l2.23-.413v-.65H648.03v.65l2.355.412c2.23.413 2.48.648 2.48 3.658v23.245c-.004 9.913 5.943 13.512 16.04 13.512zM628.93 368.26h.187l5.822 16.992h-12.204l6.193-16.992zm-16.975 33.218h11.027v-.65l-1.672-.353c-1.92-.473-2.602-1.18-2.602-2.597 0-.943.246-2.242 1.053-4.483l2.417-6.727h13.258l2.725 8.024c.373 1.003.807 2.537.807 3.422 0 1.18-.434 1.947-2.48 2.42l-1.425.294v.65h16.418v-.65l-1.3-.295c-1.798-.413-2.542-1.475-4.214-6.018l-12.328-33.926h-3.346l-12.7 33.217c-2.044 5.428-2.415 6.136-4.583 6.726l-1.056.295v.65zm-17.22.59c6.256 0 11.4-1.3 14.063-2.243v-10.62c0-2.478.186-2.95 1.672-3.186l2.23-.414v-.65h-15.61v.65l2.354.413c2.29.412 2.48.707 2.48 3.656v9.44c-1.49.885-3.968 1.652-7.436 1.652-9.54 0-13.133-7.02-13.133-20.77 0-13.628 5.39-18.702 13.69-18.702 4.334 0 6.32 1.062 8.424 3.835 1.733 2.303 2.538 4.25 3.84 7.14h.683l-.62-10.855c-3.034-.944-6.938-1.416-11.708-1.416-10.47 0-21.682 4.778-21.682 21.416 0 13.866 7.496 20.65 20.752 20.65zm-41.574-21.182c-1.857 0-3.096-.177-3.9-.295v-18.17c1.485-.296 3.034-.473 5.265-.473 5.018 0 7.93 2.36 7.93 9.38 0 6.786-3.222 9.56-9.294 9.56zm-15.796 20.592h16.603v-.65l-2.23-.412c-2.292-.472-2.478-.648-2.478-3.658v-14.632c1.61.06 3.344.118 4.583.118 3.47 6.726 7.807 14.1 11.585 19.234h10.407v-.65l-1.115-.235c-1.114-.235-1.734-.53-3.282-2.478-3.036-3.717-7.868-11.86-10.843-17.17v-.117c5.824-1.77 9.107-4.956 9.107-10.443 0-6.55-4.46-9.794-14.124-9.794h-18.214v.65l2.292.413c2.17.472 2.478.59 2.478 3.658v31.447c0 3.068-.31 3.187-2.478 3.658l-2.292.413v.65zM512.89 368.26h.185l5.824 16.992h-12.205l6.194-16.992zm-16.976 33.218h11.027v-.65l-1.672-.353c-1.92-.473-2.602-1.18-2.602-2.597 0-.943.248-2.242 1.053-4.483l2.415-6.727h13.257l2.727 8.024c.37 1.003.804 2.537.804 3.422 0 1.18-.433 1.947-2.478 2.42l-1.425.294v.65h16.417v-.65l-1.3-.295c-1.797-.413-2.54-1.475-4.213-6.018l-12.328-33.926h-3.346l-12.7 33.217c-2.044 5.428-2.415 6.136-4.584 6.726l-1.053.295v.65zm-23.88-33.218h.185l5.822 16.992h-12.204l6.195-16.992zm-16.975 33.218h11.026v-.65l-1.673-.353c-1.92-.473-2.602-1.18-2.602-2.597 0-.943.248-2.242 1.055-4.483l2.416-6.727h13.258l2.726 8.024c.372 1.003.806 2.537.806 3.422 0 1.18-.434 1.947-2.48 2.42l-1.424.294v.65h16.417v-.65l-1.3-.295c-1.797-.413-2.54-1.475-4.213-6.018l-12.328-33.926h-3.347l-12.7 33.217c-2.043 5.428-2.415 6.136-4.583 6.726l-1.054.295v.65z"/></g></svg>